<svg data-v-d3f97b9e="" xmlns="http://www.w3.org/2000/svg" viewBox="0 0 332.25283630470017 163"><!----><linearGradient data-v-d3f97b9e="" gradientTransform="rotate(25)" id="1322cf3a-6157-4062-b558-a56db22145a6" x1="0%" y1="0%" x2="100%" y2="0%"><stop data-v-d3f97b9e="" offset="0%" style="stop-color: rgb(137, 75, 72); stop-opacity: 1;"></stop><stop data-v-d3f97b9e="" offset="100%" style="stop-color: rgb(213, 159, 137); stop-opacity: 1;"></stop></linearGradient><!----><g data-v-d3f97b9e="" id="b875b58a-1a32-4f8f-9e6b-5e5bdab2e0a6" fill="#ffffff" transform="matrix(4.149108409881592,0,0,4.149108409881592,-1.3290032148361206,90.3906021118164)"><path d="M1.72 11.01L1.72 11.01L1.66 11.54L1.66 11.54Q1.66 12.37 2.21 12.67L2.21 12.67L2.21 12.67Q2.41 12.77 2.67 12.77L2.67 12.77L2.67 12.77Q2.94 12.77 3.15 12.68L3.15 12.68L3.15 12.68Q3.36 12.58 3.50 12.43L3.50 12.43L3.50 12.43Q3.79 12.13 3.79 11.72L3.79 11.72L3.79 11.72Q3.79 11.32 3.62 10.99L3.62 10.99L3.62 10.99Q3.46 10.66 3.21 10.34L3.21 10.34L2.67 9.67L2.67 9.67Q2.00 8.87 1.78 8.22L1.78 8.22L1.78 8.22Q1.55 7.57 1.55 7.02L1.55 7.02L1.55 7.02Q1.55 6.47 1.69 5.98L1.69 5.98L1.69 5.98Q1.82 5.50 2.06 5.06L2.06 5.06L2.06 5.06Q2.30 4.61 2.63 4.25L2.63 4.25L2.63 4.25Q2.97 3.88 3.38 3.61L3.38 3.61L3.38 3.61Q4.23 3.04 5.07 3.04L5.07 3.04L5.07 3.04Q5.91 3.04 6.38 3.27L6.38 3.27L6.38 3.27Q6.86 3.50 7.14 3.86L7.14 3.86L7.14 3.86Q7.68 4.53 7.68 5.48L7.68 5.48L7.68 5.48Q7.68 6.36 7.18 7.14L7.18 7.14L7.18 7.14Q6.72 7.85 6.15 8.04L6.15 8.04L6.15 8.04Q6.03 8.10 5.81 8.10L5.81 8.10L5.81 8.10Q5.60 8.10 5.45 8.04L5.45 8.04L5.45 8.04Q5.30 7.97 5.20 7.86L5.20 7.86L5.20 7.86Q4.96 7.62 4.96 7.34L4.96 7.34L4.96 7.34Q4.96 7.15 5.07 7.09L5.07 7.09L5.07 7.09Q5.59 6.81 5.97 6.28L5.97 6.28L5.97 6.28Q6.39 5.69 6.41 5.12L6.41 5.12L6.41 5.12Q6.43 4.54 6.14 4.26L6.14 4.26L6.14 4.26Q5.84 3.99 5.35 3.99L5.35 3.99L5.35 3.99Q4.85 3.99 4.46 4.21L4.46 4.21L4.46 4.21Q4.06 4.43 3.77 4.81L3.77 4.81L3.77 4.81Q3.16 5.61 3.16 6.71L3.16 6.71L3.16 6.71Q3.16 7.44 3.66 8.26L3.66 8.26L3.66 8.26Q3.88 8.61 4.13 8.94L4.13 8.94L4.13 8.94Q4.38 9.28 4.59 9.64L4.59 9.64L4.59 9.64Q5.09 10.47 5.09 11.12L5.09 11.12L5.09 11.12Q5.09 11.78 4.86 12.23L4.86 12.23L4.86 12.23Q4.62 12.68 4.23 13.02L4.23 13.02L4.23 13.02Q3.39 13.74 2.32 13.74L2.32 13.74L2.32 13.74Q1.31 13.74 0.76 13.14L0.76 13.14L0.76 13.14Q0.32 12.65 0.32 12.09L0.32 12.09L0.32 12.09Q0.32 11.47 0.67 11.05L0.67 11.05L0.67 11.05Q0.94 10.73 1.18 10.66L1.18 10.66L1.18 10.66Q1.72 10.52 1.72 11.01ZM7.08 11.31L7.08 11.31L7.08 11.31Q7.09 10.72 7.26 10.13L7.26 10.13L7.26 10.13Q7.44 9.54 7.73 9.01L7.73 9.01L7.73 9.01Q8.02 8.48 8.42 8.04L8.42 8.04L8.42 8.04Q8.82 7.59 9.29 7.27L9.29 7.27L9.29 7.27Q10.27 6.60 11.36 6.60L11.36 6.60L11.36 6.60Q12.48 6.60 12.89 7.49L12.89 7.49L12.89 7.49Q13.03 7.81 13.02 8.22L13.02 8.22L13.02 8.22Q13.01 8.63 12.89 8.97L12.89 8.97L12.89 8.97Q12.76 9.30 12.58 9.57L12.58 9.57L12.58 9.57Q12.16 10.17 11.74 10.17L11.74 10.17L11.74 10.17Q11.27 10.17 11.04 9.91L11.04 9.91L11.04 9.91Q10.84 9.69 10.92 9.39L10.92 9.39L10.92 9.39Q10.94 9.30 11.04 9.23L11.04 9.23L11.04 9.23Q11.14 9.15 11.30 9.00L11.30 9.00L11.30 9.00Q11.74 8.53 11.76 7.91L11.76 7.91L11.76 7.91Q11.78 7.49 11.25 7.49L11.25 7.49L11.25 7.49Q10.67 7.49 10.04 8.13L10.04 8.13L10.04 8.13Q9.13 9.06 8.75 10.53L8.75 10.53L8.75 10.53Q8.42 11.80 8.87 12.39L8.87 12.39L8.87 12.39Q9.14 12.73 9.60 12.73L9.60 12.73L9.60 12.73Q10.37 12.73 11.09 12.18L11.09 12.18L11.09 12.18Q11.31 12.01 11.44 11.83L11.44 11.83L11.44 11.83Q11.58 11.66 11.70 11.66L11.70 11.66L11.70 11.66Q11.81 11.66 11.89 11.77L11.89 11.77L11.89 11.77Q11.97 11.88 11.97 12.06L11.97 12.06L11.97 12.06Q11.97 12.46 11.61 12.85L11.61 12.85L11.61 12.85Q10.68 13.74 9.37 13.74L9.37 13.74L9.37 13.74Q8.26 13.74 7.65 13.10L7.65 13.10L7.65 13.10Q7.05 12.48 7.08 11.31ZM13.67 13.51L13.67 13.51L13.67 13.51Q13.53 13.41 13.45 13.28L13.45 13.28L13.45 13.28Q13.36 13.15 13.36 13.06L13.36 13.06L13.36 13.06Q13.35 12.97 13.40 12.83L13.40 12.83L13.40 12.83Q13.44 12.70 13.51 12.51L13.51 12.51L13.51 12.51Q14.91 9.08 14.91 7.90L14.91 7.90L14.91 7.90Q14.89 7.57 14.68 7.44L14.68 7.44L14.55 7.34L14.55 7.34Q14.49 7.29 14.48 7.17L14.48 7.17L14.48 7.17Q14.48 7.05 14.57 6.95L14.57 6.95L14.57 6.95Q14.66 6.84 14.80 6.75L14.80 6.75L14.80 6.75Q15.09 6.60 15.40 6.60L15.40 6.60L15.40 6.60Q15.72 6.60 15.89 6.67L15.89 6.67L15.89 6.67Q16.06 6.73 16.19 6.85L16.19 6.85L16.19 6.85Q16.45 7.10 16.45 7.37L16.45 7.37L16.45 7.37Q16.45 7.64 16.39 7.92L16.39 7.92L16.39 7.92Q16.32 8.20 16.24 8.47L16.24 8.47L16.24 8.47Q16.15 8.74 16.06 8.99L16.06 8.99L16.06 8.99Q15.97 9.23 15.94 9.34L15.94 9.34L15.94 9.34Q15.89 9.58 15.90 9.65L15.90 9.65L15.90 9.65Q16.06 9.50 16.10 9.37L16.10 9.37L16.37 8.86L16.37 8.86Q17.25 7.26 18.10 6.74L18.10 6.74L18.10 6.74Q18.35 6.60 18.69 6.60L18.69 6.60L18.69 6.60Q19.04 6.60 19.25 6.84L19.25 6.84L19.25 6.84Q19.46 7.08 19.47 7.38L19.47 7.38L19.47 7.38Q19.48 7.67 19.43 7.86L19.43 7.86L19.43 7.86Q19.38 8.06 19.28 8.23L19.28 8.23L19.28 8.23Q19.05 8.61 18.73 8.61L18.73 8.61L18.73 8.61Q18.64 8.61 18.57 8.55L18.57 8.55L18.42 8.42L18.42 8.42Q18.19 8.22 17.98 8.22L17.98 8.22L17.98 8.22Q17.77 8.22 17.48 8.50L17.48 8.50L17.48 8.50Q17.18 8.77 16.86 9.20L16.86 9.20L16.86 9.20Q15.78 10.63 15.09 12.40L15.09 12.40L14.79 13.19L14.79 13.19Q14.68 13.49 14.59 13.61L14.59 13.61L14.59 13.61Q14.50 13.74 14.32 13.74L14.32 13.74L14.32 13.74Q14.15 13.74 13.98 13.68L13.98 13.68L13.98 13.68Q13.80 13.61 13.67 13.51ZM23.04 4.99L23.04 4.99L23.04 4.99Q22.89 5.15 22.70 5.25L22.70 5.25L22.70 5.25Q22.51 5.35 22.30 5.38L22.30 5.38L22.30 5.38Q22.09 5.40 21.90 5.31L21.90 5.31L21.90 5.31Q21.71 5.22 21.57 5.06L21.57 5.06L21.57 5.06Q21.28 4.72 21.28 4.37L21.28 4.37L21.28 4.37Q21.28 4.02 21.39 3.85L21.39 3.85L21.39 3.85Q21.51 3.67 21.68 3.56L21.68 3.56L21.68 3.56Q22.00 3.35 22.30 3.35L22.30 3.35L22.30 3.35Q22.59 3.35 22.75 3.39L22.75 3.39L22.75 3.39Q22.91 3.43 23.04 3.53L23.04 3.53L23.04 3.53Q23.38 3.75 23.38 4.08L23.38 4.08L23.38 4.08Q23.38 4.40 23.29 4.62L23.29 4.62L23.29 4.62Q23.19 4.83 23.04 4.99ZM21.64 12.39L21.64 12.39L21.64 12.39Q21.82 12.39 21.82 12.63L21.82 12.63L21.82 12.63Q21.82 12.93 21.54 13.26L21.54 13.26L21.54 13.26Q21.13 13.74 20.44 13.74L20.44 13.74L20.44 13.74Q19.65 13.74 19.35 13.10L19.35 13.10L19.35 13.10Q19.24 12.87 19.24 12.55L19.24 12.55L19.24 12.55Q19.24 12.23 19.36 11.84L19.36 11.84L19.36 11.84Q19.47 11.44 19.64 11.01L19.64 11.01L19.64 11.01Q19.80 10.58 20.00 10.13L20.00 10.13L20.36 9.27L20.36 9.27Q20.76 8.31 20.76 8.00L20.76 8.00L20.76 8.00Q20.76 7.69 20.70 7.59L20.70 7.59L20.70 7.59Q20.63 7.49 20.56 7.44L20.56 7.44L20.42 7.34L20.42 7.34Q20.35 7.29 20.35 7.17L20.35 7.17L20.35 7.17Q20.35 7.05 20.44 6.95L20.44 6.95L20.44 6.95Q20.54 6.84 20.69 6.75L20.69 6.75L20.69 6.75Q20.99 6.60 21.40 6.60L21.40 6.60L21.40 6.60Q22.41 6.60 22.41 7.12L22.41 7.12L22.41 7.12Q22.41 7.74 22.09 8.53L22.09 8.53L22.09 8.53Q21.77 9.32 21.54 9.80L21.54 9.80L21.13 10.75L21.13 10.75Q20.68 11.79 20.68 12.24L20.68 12.24L20.68 12.24Q20.68 12.54 20.98 12.54L20.98 12.54L20.98 12.54Q21.27 12.54 21.42 12.47L21.42 12.47L21.42 12.47Q21.57 12.39 21.64 12.39ZM24.58 13.02L24.58 13.02L24.58 13.02Q24.57 13.13 24.28 14.10L24.28 14.10L24.28 14.10Q24.00 15.08 23.81 15.65L23.81 15.65L23.81 15.65Q23.38 16.94 23.10 17.25L23.10 17.25L23.10 17.25Q22.87 17.50 22.55 17.50L22.55 17.50L22.55 17.50Q22.16 17.50 21.96 17.12L21.96 17.12L21.96 17.12Q21.90 17.01 21.90 16.87L21.90 16.87L21.90 16.87Q21.90 16.74 22.10 16.30L22.10 16.30L22.10 16.30Q22.64 15.17 23.54 11.85L23.54 11.85L23.54 11.85Q23.91 10.54 24.02 10.07L24.02 10.07L24.24 9.21L24.24 9.21Q24.45 8.37 24.49 8.06L24.49 8.06L24.49 8.06Q24.53 7.76 24.45 7.63L24.45 7.63L24.45 7.63Q24.38 7.51 24.28 7.44L24.28 7.44L24.28 7.44Q24.19 7.38 24.10 7.33L24.10 7.33L24.10 7.33Q24.02 7.28 24.04 7.15L24.04 7.15L24.04 7.15Q24.05 7.03 24.15 6.92L24.15 6.92L24.15 6.92Q24.25 6.82 24.40 6.74L24.40 6.74L24.40 6.74Q24.71 6.60 25.02 6.60L25.02 6.60L25.02 6.60Q25.33 6.60 25.50 6.67L25.50 6.67L25.50 6.67Q25.68 6.75 25.80 6.88L25.80 6.88L25.80 6.88Q26.04 7.14 26.02 7.40L26.02 7.40L26.02 7.40Q25.95 7.92 25.87 8.30L25.87 8.30L25.87 8.30Q27.06 6.60 28.35 6.60L28.35 6.60L28.35 6.60Q29.52 6.60 29.91 7.81L29.91 7.81L29.91 7.81Q30.05 8.23 30.05 8.84L30.05 8.84L30.05 8.84Q30.05 9.45 29.87 10.06L29.87 10.06L29.87 10.06Q29.68 10.67 29.37 11.22L29.37 11.22L29.37 11.22Q29.05 11.76 28.64 12.23L28.64 12.23L28.64 12.23Q28.22 12.69 27.75 13.03L27.75 13.03L27.75 13.03Q26.77 13.74 25.89 13.74L25.89 13.74L25.89 13.74Q25.02 13.74 24.58 13.02ZM25.64 10.11L25.64 10.11L25.64 10.11Q25.39 10.59 25.23 11.07L25.23 11.07L25.23 11.07Q25.08 11.55 25.08 11.94L25.08 11.94L25.08 11.94Q25.08 12.34 25.25 12.60L25.25 12.60L25.25 12.60Q25.42 12.85 25.76 12.85L25.76 12.85L25.76 12.85Q26.09 12.85 26.42 12.67L26.42 12.67L26.42 12.67Q26.76 12.49 27.07 12.18L27.07 12.18L27.07 12.18Q27.38 11.87 27.65 11.46L27.65 11.46L27.65 11.46Q27.92 11.05 28.12 10.58L28.12 10.58L28.12 10.58Q28.55 9.57 28.55 8.66L28.55 8.66L28.55 8.66Q28.55 8.17 28.42 7.90L28.42 7.90L28.42 7.90Q28.29 7.62 28.02 7.62L28.02 7.62L28.02 7.62Q27.75 7.62 27.45 7.83L27.45 7.83L27.45 7.83Q27.16 8.04 26.84 8.38L26.84 8.38L26.84 8.38Q26.52 8.73 26.20 9.18L26.20 9.18L26.20 9.18Q25.89 9.63 25.64 10.11ZM34.70 11.88L34.70 11.88L34.70 11.88Q34.90 11.88 34.90 12.15L34.90 12.15L34.90 12.15Q34.90 12.37 34.76 12.58L34.76 12.58L34.76 12.58Q34.58 12.98 34.02 13.34L34.02 13.34L34.02 13.34Q33.39 13.74 32.76 13.74L32.76 13.74L32.76 13.74Q31.66 13.74 31.36 12.76L31.36 12.76L31.36 12.76Q31.01 11.59 32.41 7.80L32.41 7.80L32.41 7.80Q31.62 7.73 31.55 7.53L31.55 7.53L31.55 7.53Q31.53 7.46 31.53 7.39L31.53 7.39L31.53 7.39Q31.53 7.32 31.60 7.23L31.60 7.23L31.60 7.23Q31.66 7.13 31.77 7.04L31.77 7.04L31.77 7.04Q32.01 6.84 32.25 6.84L32.25 6.84L32.79 6.84L32.79 6.84Q33.53 5.11 33.84 4.87L33.84 4.87L33.84 4.87Q34.00 4.76 34.18 4.76L34.18 4.76L34.18 4.76Q34.36 4.76 34.49 4.81L34.49 4.81L34.49 4.81Q34.61 4.86 34.71 4.95L34.71 4.95L34.71 4.95Q34.92 5.15 34.92 5.41L34.92 5.41L34.92 5.41Q34.92 5.54 34.84 5.72L34.84 5.72L34.34 6.82L34.50 6.82L34.50 6.82Q34.92 6.82 35.18 6.82L35.18 6.82L35.18 6.82Q35.18 6.82 35.57 6.81L35.57 6.81L35.57 6.81Q35.70 6.80 35.90 6.80L35.90 6.80L35.90 6.80Q36.09 6.80 36.09 6.95L36.09 6.95L36.09 6.95Q36.09 7.85 33.96 7.85L33.96 7.85L33.91 7.85L33.44 9.05L33.44 9.05Q32.66 11.18 32.66 12.04L32.66 12.04L32.66 12.04Q32.66 12.28 32.76 12.41L32.76 12.41L32.76 12.41Q32.87 12.54 33.17 12.54L33.17 12.54L33.17 12.54Q33.48 12.54 33.72 12.44L33.72 12.44L33.72 12.44Q33.97 12.34 34.15 12.21L34.15 12.21L34.15 12.21Q34.34 12.09 34.47 11.98L34.47 11.98L34.47 11.98Q34.60 11.88 34.70 11.88ZM42.47 12.33L42.47 12.33L42.47 12.33Q42.63 12.33 42.63 12.48L42.63 12.48L42.63 12.48Q42.63 13.08 42.04 13.48L42.04 13.48L42.04 13.48Q41.64 13.74 41.11 13.74L41.11 13.74L41.11 13.74Q40.67 13.74 40.44 13.54L40.44 13.54L40.44 13.54Q40.02 13.17 40.02 12.63L40.02 12.63L40.02 12.63Q40.02 11.96 40.59 10.56L40.59 10.56L40.59 10.56Q39.54 11.98 39.12 12.45L39.12 12.45L39.12 12.45Q38.69 12.92 38.38 13.18L38.38 13.18L38.38 13.18Q37.69 13.74 37.14 13.74L37.14 13.74L37.14 13.74Q36.29 13.74 36.01 13.01L36.01 13.01L36.01 13.01Q35.93 12.78 35.93 12.49L35.93 12.49L35.93 12.49Q35.93 12.20 36.03 11.84L36.03 11.84L36.03 11.84Q36.13 11.48 36.29 11.09L36.29 11.09L36.29 11.09Q36.44 10.71 36.63 10.29L36.63 10.29L37.00 9.47L37.00 9.47Q37.71 7.90 37.52 7.60L37.52 7.60L37.52 7.60Q37.44 7.47 37.21 7.34L37.21 7.34L37.21 7.34Q37.13 7.29 37.13 7.17L37.13 7.17L37.13 7.17Q37.13 7.05 37.23 6.95L37.23 6.95L37.23 6.95Q37.33 6.84 37.49 6.75L37.49 6.75L37.49 6.75Q37.82 6.60 38.16 6.60L38.16 6.60L38.16 6.60Q38.49 6.60 38.67 6.67L38.67 6.67L38.67 6.67Q38.84 6.74 38.95 6.85L38.95 6.85L38.95 6.85Q39.18 7.08 39.18 7.35L39.18 7.35L39.18 7.35Q39.18 7.62 39.09 7.96L39.09 7.96L39.09 7.96Q39.00 8.30 38.86 8.70L38.86 8.70L38.86 8.70Q38.71 9.09 38.54 9.52L38.54 9.52L38.54 9.52Q38.07 10.62 37.91 10.98L37.91 10.98L37.65 11.50L37.65 11.50Q37.44 11.98 37.44 12.17L37.44 12.17L37.44 12.17Q37.44 12.36 37.50 12.44L37.50 12.44L37.50 12.44Q37.56 12.52 37.72 12.52L37.72 12.52L37.72 12.52Q37.88 12.52 38.10 12.37L38.10 12.37L38.10 12.37Q38.31 12.22 38.56 11.96L38.56 11.96L38.56 11.96Q38.81 11.71 39.09 11.38L39.09 11.38L39.09 11.38Q39.36 11.05 39.62 10.69L39.62 10.69L39.62 10.69Q40.13 9.99 40.37 9.57L40.37 9.57L40.37 9.57Q41.82 7.01 41.92 6.89L41.92 6.89L41.92 6.89Q42.14 6.60 42.37 6.60L42.37 6.60L42.37 6.60Q42.59 6.60 42.77 6.65L42.77 6.65L42.77 6.65Q42.94 6.70 43.06 6.79L43.06 6.79L43.06 6.79Q43.35 7.01 43.24 7.22L43.24 7.22L43.24 7.22Q41.58 10.70 41.45 11.59L41.45 11.59L41.45 11.59Q41.41 11.90 41.41 12.02L41.41 12.02L41.41 12.02Q41.41 12.54 41.73 12.54L41.73 12.54L41.73 12.54Q42.02 12.54 42.21 12.43L42.21 12.43L42.21 12.43Q42.40 12.33 42.47 12.33ZM43.86 13.51L43.86 13.51L43.86 13.51Q43.72 13.41 43.64 13.28L43.64 13.28L43.64 13.28Q43.56 13.15 43.55 13.06L43.55 13.06L43.55 13.06Q43.54 12.97 43.59 12.83L43.59 12.83L43.59 12.83Q43.63 12.70 43.71 12.51L43.71 12.51L43.71 12.51Q45.10 9.08 45.10 7.90L45.10 7.90L45.10 7.90Q45.08 7.57 44.88 7.44L44.88 7.44L44.74 7.34L44.74 7.34Q44.68 7.29 44.68 7.17L44.68 7.17L44.68 7.17Q44.67 7.05 44.76 6.95L44.76 6.95L44.76 6.95Q44.85 6.84 44.99 6.75L44.99 6.75L44.99 6.75Q45.29 6.60 45.60 6.60L45.60 6.60L45.60 6.60Q45.91 6.60 46.08 6.67L46.08 6.67L46.08 6.67Q46.26 6.73 46.38 6.85L46.38 6.85L46.38 6.85Q46.64 7.10 46.65 7.37L46.65 7.37L46.65 7.37Q46.65 7.64 46.58 7.92L46.58 7.92L46.58 7.92Q46.52 8.20 46.43 8.47L46.43 8.47L46.43 8.47Q46.34 8.74 46.25 8.99L46.25 8.99L46.25 8.99Q46.16 9.23 46.14 9.34L46.14 9.34L46.14 9.34Q46.08 9.58 46.09 9.65L46.09 9.65L46.09 9.65Q46.26 9.50 46.29 9.37L46.29 9.37L46.56 8.86L46.56 8.86Q47.45 7.26 48.30 6.74L48.30 6.74L48.30 6.74Q48.54 6.60 48.89 6.60L48.89 6.60L48.89 6.60Q49.23 6.60 49.44 6.84L49.44 6.84L49.44 6.84Q49.66 7.08 49.67 7.38L49.67 7.38L49.67 7.38Q49.68 7.67 49.63 7.86L49.63 7.86L49.63 7.86Q49.57 8.06 49.47 8.23L49.47 8.23L49.47 8.23Q49.25 8.61 48.92 8.61L48.92 8.61L48.92 8.61Q48.84 8.61 48.76 8.55L48.76 8.55L48.61 8.42L48.61 8.42Q48.38 8.22 48.18 8.22L48.18 8.22L48.18 8.22Q47.97 8.22 47.67 8.50L47.67 8.50L47.67 8.50Q47.37 8.77 47.05 9.20L47.05 9.20L47.05 9.20Q45.97 10.63 45.29 12.40L45.29 12.40L44.99 13.19L44.99 13.19Q44.87 13.49 44.78 13.61L44.78 13.61L44.78 13.61Q44.69 13.74 44.52 13.74L44.52 13.74L44.52 13.74Q44.34 13.74 44.17 13.68L44.17 13.68L44.17 13.68Q44.00 13.61 43.86 13.51ZM49.57 11.28L49.57 11.28L49.57 11.28Q49.60 10.68 49.77 10.14L49.77 10.14L49.77 10.14Q49.94 9.60 50.23 9.09L50.23 9.09L50.23 9.09Q50.52 8.58 50.90 8.12L50.90 8.12L50.90 8.12Q51.29 7.67 51.74 7.33L51.74 7.33L51.74 7.33Q52.72 6.60 53.72 6.60L53.72 6.60L53.72 6.60Q54.89 6.60 55.28 7.56L55.28 7.56L55.28 7.56Q55.41 7.89 55.41 8.34L55.41 8.34L55.41 8.34Q55.40 8.78 55.23 9.16L55.23 9.16L55.23 9.16Q55.07 9.54 54.78 9.85L54.78 9.85L54.78 9.85Q54.49 10.17 54.09 10.41L54.09 10.41L54.09 10.41Q53.69 10.66 53.22 10.83L53.22 10.83L53.22 10.83Q52.25 11.17 51.14 11.18L51.14 11.18L51.14 11.18Q51.11 11.28 51.11 11.47L51.11 11.47L51.11 11.47Q51.10 11.66 51.15 11.90L51.15 11.90L51.15 11.90Q51.19 12.13 51.31 12.32L51.31 12.32L51.31 12.32Q51.56 12.73 52.02 12.73L52.02 12.73L52.02 12.73Q52.81 12.73 53.57 12.26L53.57 12.26L53.57 12.26Q53.83 12.11 54.00 11.94L54.00 11.94L54.00 11.94Q54.17 11.77 54.29 11.77L54.29 11.77L54.29 11.77Q54.41 11.77 54.51 11.92L54.51 11.92L54.51 11.92Q54.60 12.07 54.60 12.25L54.60 12.25L54.60 12.25Q54.60 12.61 54.39 12.88L54.39 12.88L54.39 12.88Q53.53 13.74 51.83 13.74L51.83 13.74L51.83 13.74Q50.83 13.74 50.22 13.14L50.22 13.14L50.22 13.14Q49.53 12.46 49.57 11.28ZM53.57 7.51L53.57 7.51L53.57 7.51Q52.85 7.51 52.19 8.49L52.19 8.49L52.19 8.49Q51.63 9.34 51.28 10.50L51.28 10.50L51.28 10.50Q52.42 10.38 53.27 9.60L53.27 9.60L53.27 9.60Q54.04 8.86 54.04 8.18L54.04 8.18L54.04 8.18Q54.04 7.51 53.57 7.51ZM60.72 12.66L60.72 12.66L60.72 12.66Q60.58 12.28 60.59 11.73L60.59 11.73L60.59 11.73Q60.61 11.19 60.75 10.42L60.75 10.42L60.75 10.42Q60.89 9.66 61.17 8.78L61.17 8.78L61.17 8.78Q61.84 6.75 62.98 5.20L62.98 5.20L62.98 5.20Q63.18 4.93 63.39 4.93L63.39 4.93L63.39 4.93Q63.61 4.93 63.82 5.02L63.82 5.02L63.82 5.02Q64.03 5.12 64.18 5.25L64.18 5.25L64.18 5.25Q64.58 5.58 64.44 5.78L64.44 5.78L64.44 5.78Q63.48 7.33 62.86 8.57L62.86 8.57L62.86 8.57Q64.42 8.46 65.60 7.59L65.60 7.59L65.60 7.59Q66.89 6.64 66.89 5.28L66.89 5.28L66.89 5.28Q66.89 4.35 65.97 4.10L65.97 4.10L65.97 4.10Q65.69 4.03 65.31 4.03L65.31 4.03L65.31 4.03Q64.92 4.03 64.51 4.10L64.51 4.10L64.51 4.10Q64.09 4.18 63.71 4.32L63.71 4.32L63.71 4.32Q62.95 4.60 62.32 5.06L62.32 5.06L62.32 5.06Q62.15 5.19 62.00 5.19L62.00 5.19L62.00 5.19Q61.84 5.19 61.67 5.11L61.67 5.11L61.67 5.11Q61.49 5.03 61.35 4.92L61.35 4.92L61.35 4.92Q60.82 4.46 61.50 3.98L61.50 3.98L61.50 3.98Q62.49 3.28 64.43 3.08L64.43 3.08L64.43 3.08Q64.79 3.04 65.40 3.04L65.40 3.04L65.40 3.04Q66.00 3.04 66.63 3.24L66.63 3.24L66.63 3.24Q67.27 3.44 67.65 3.77L67.65 3.77L67.65 3.77Q68.35 4.40 68.35 5.52L68.35 5.52L68.35 5.52Q68.35 6.54 67.55 7.52L67.55 7.52L67.55 7.52Q66.82 8.43 65.67 9.00L65.67 9.00L65.67 9.00Q66.22 9.24 66.50 9.68L66.50 9.68L66.50 9.68Q66.77 10.12 66.76 10.63L66.76 10.63L66.76 10.63Q66.75 11.14 66.56 11.57L66.56 11.57L66.56 11.57Q66.37 12.00 66.05 12.34L66.05 12.34L66.05 12.34Q65.73 12.69 65.31 12.95L65.31 12.95L65.31 12.95Q64.89 13.21 64.43 13.38L64.43 13.38L64.43 13.38Q63.48 13.74 62.50 13.74L62.50 13.74L62.50 13.74Q61.13 13.74 60.72 12.66ZM62.38 9.68L62.38 9.68L62.38 9.68Q61.86 10.97 61.83 11.93L61.83 11.93L61.83 11.93Q61.82 12.39 62.06 12.64L62.06 12.64L62.06 12.64Q62.30 12.89 62.73 12.89L62.73 12.89L62.73 12.89Q63.15 12.89 63.60 12.71L63.60 12.71L63.60 12.71Q64.05 12.52 64.43 12.21L64.43 12.21L64.43 12.21Q65.29 11.48 65.32 10.57L65.32 10.57L65.32 10.57Q65.34 9.73 64.57 9.43L64.57 9.43L64.57 9.43Q64.33 9.34 64.07 9.32L64.07 9.32L64.07 9.32Q63.75 9.33 63.17 9.48L63.17 9.48L63.17 9.48Q62.59 9.63 62.38 9.68ZM68.80 13.21L68.80 13.21L68.80 13.21Q68.52 12.93 68.35 12.51L68.35 12.51L68.35 12.51Q68.19 12.09 68.18 11.52L68.18 11.52L68.18 11.52Q68.17 10.94 68.32 10.36L68.32 10.36L68.32 10.36Q68.47 9.77 68.74 9.22L68.74 9.22L68.74 9.22Q69.01 8.67 69.39 8.20L69.39 8.20L69.39 8.20Q69.77 7.72 70.23 7.36L70.23 7.36L70.23 7.36Q71.22 6.60 72.30 6.60L72.30 6.60L72.30 6.60Q73.71 6.60 74.20 7.83L74.20 7.83L74.20 7.83Q74.56 8.73 74.25 10.00L74.25 10.00L74.25 10.00Q73.96 11.17 73.19 12.15L73.19 12.15L73.19 12.15Q72.43 13.13 71.40 13.54L71.40 13.54L71.40 13.54Q70.88 13.74 70.38 13.74L70.38 13.74L70.38 13.74Q69.88 13.74 69.48 13.61L69.48 13.61L69.48 13.61Q69.09 13.48 68.80 13.21ZM70.11 9.89L70.11 9.89L70.11 9.89Q69.90 10.40 69.78 10.93L69.78 10.93L69.78 10.93Q69.67 11.46 69.67 11.94L69.67 11.94L69.67 11.94Q69.68 12.41 69.82 12.68L69.82 12.68L69.82 12.68Q69.96 12.95 70.27 12.95L70.27 12.95L70.27 12.95Q70.59 12.95 70.89 12.74L70.89 12.74L70.89 12.74Q71.20 12.52 71.48 12.17L71.48 12.17L71.48 12.17Q71.77 11.81 72.02 11.35L72.02 11.35L72.02 11.35Q72.28 10.88 72.47 10.38L72.47 10.38L72.47 10.38Q72.88 9.28 72.87 8.42L72.87 8.42L72.87 8.42Q72.87 7.67 72.56 7.46L72.56 7.46L72.56 7.46Q72.44 7.38 72.22 7.38L72.22 7.38L72.22 7.38Q72.00 7.38 71.71 7.58L71.71 7.58L71.71 7.58Q71.42 7.79 71.13 8.13L71.13 8.13L71.13 8.13Q70.85 8.47 70.58 8.93L70.58 8.93L70.58 8.93Q70.31 9.39 70.11 9.89ZM79.00 11.88L79.00 11.88L79.00 11.88Q79.20 11.88 79.20 12.15L79.20 12.15L79.20 12.15Q79.20 12.37 79.06 12.58L79.06 12.58L79.06 12.58Q78.88 12.98 78.33 13.34L78.33 13.34L78.33 13.34Q77.70 13.74 77.06 13.74L77.06 13.74L77.06 13.74Q75.96 13.74 75.67 12.76L75.67 12.76L75.67 12.76Q75.32 11.59 76.71 7.80L76.71 7.80L76.71 7.80Q75.93 7.73 75.86 7.53L75.86 7.53L75.86 7.53Q75.84 7.46 75.84 7.39L75.84 7.39L75.84 7.39Q75.84 7.32 75.90 7.23L75.90 7.23L75.90 7.23Q75.97 7.13 76.07 7.04L76.07 7.04L76.07 7.04Q76.31 6.84 76.56 6.84L76.56 6.84L77.10 6.84L77.10 6.84Q77.83 5.11 78.15 4.87L78.15 4.87L78.15 4.87Q78.30 4.76 78.48 4.76L78.48 4.76L78.48 4.76Q78.67 4.76 78.79 4.81L78.79 4.81L78.79 4.81Q78.91 4.86 79.01 4.95L79.01 4.95L79.01 4.95Q79.23 5.15 79.23 5.41L79.23 5.41L79.23 5.41Q79.23 5.54 79.15 5.72L79.15 5.72L78.64 6.82L78.80 6.82L78.80 6.82Q79.23 6.82 79.49 6.82L79.49 6.82L79.49 6.82Q79.49 6.82 79.88 6.81L79.88 6.81L79.88 6.81Q80.01 6.80 80.20 6.80L80.20 6.80L80.20 6.80Q80.40 6.80 80.40 6.95L80.40 6.95L80.40 6.95Q80.40 7.85 78.26 7.85L78.26 7.85L78.21 7.85L77.75 9.05L77.75 9.05Q76.96 11.18 76.96 12.04L76.96 12.04L76.96 12.04Q76.96 12.28 77.07 12.41L77.07 12.41L77.07 12.41Q77.18 12.54 77.48 12.54L77.48 12.54L77.48 12.54Q77.78 12.54 78.03 12.44L78.03 12.44L78.03 12.44Q78.27 12.34 78.46 12.21L78.46 12.21L78.46 12.21Q78.64 12.09 78.77 11.98L78.77 11.98L78.77 11.98Q78.91 11.88 79.00 11.88Z"></path></g><!----><g data-v-d3f97b9e="" id="000e9c5c-38bf-439f-bdd6-48ad2ea23ca2" transform="matrix(1.1058846712112427,0,0,1.1058846712112427,111.31913757324219,-9.952964782714844)" stroke="none" fill="#ffffff"><path d="M98.699 69.11l-1.867-1.352c-.031-.023-3.702-2.749-3.886-6.214-.222-4.14 1.296-7.032 1.296-7.032-2.543 2.154-3.782 4.554-3.68 7.128.112 2.853 1.884 5.213 3.259 6.619L54.004 81.91h-.007l-3.647-4.307-5.928 2.646 3.131 3.877-6.31 2.161a4.362 4.362 0 0 1-.635.056c-2.4 0-4.577-2.717-4.577-5.697 0-2.964 2.034-5.919 4.013-7.063l56.097-20.746L54.728 9 6.107 25.463C3.708 26.377 2 28.992 2 32.011c0 1.581.477 3.115 1.335 4.346l.445-.293-.429.309 2.074 3.258c-.334-6.325 4.601-7.962 7.048-9.042l2.384 2.98c-1.812.794-7.151 2.496-6.857 8.129l.016.182c0 1.176.35 2.313.978 3.21l-.008.007 16.527 25.339c-.326-3.202 3.154-7.755 8.367-8.859l2.272 2.845c-5.363 2.058-8.145 5.165-7.612 9.025l.016.176c0 1.177.342 2.32.978 3.21l-.034.024 5.833 9.018.04-.023c1.303 1.74 3.203 2.876 5.237 2.876.39 0 .787-.039 1.167-.119l7.358-2.519 3.464 4.291 1.589-3.513H58.2l-2.551-3.011 43.05-14.747zM35.618 41.117l-2.384-2.979 8.661-3.266-6.476-8.455 5.761-1.986 6.572 8.231 8.128-3.067 2.979 2.781-8.716 3.281 13.086 16.384-6.356 2.384L44.207 37.89l-8.589 3.227z"></path></g><!----></svg>