<svg data-v-29081953="" xmlns="http://www.w3.org/2000/svg" viewBox="0 0 300 300"><!----><defs data-v-29081953=""><linearGradient data-v-29081953="" gradientTransform="rotate(25)" id="b46c3243-6189-436c-9268-ccc939e69faa" x1="0%" y1="0%" x2="100%" y2="0%"><stop data-v-29081953="" offset="0%" stop-color="#894B48" stop-opacity="1"></stop><stop data-v-29081953="" offset="100%" stop-color="#D59F89" stop-opacity="1"></stop></linearGradient></defs><rect data-v-29081953="" fill="url(#b46c3243-6189-436c-9268-ccc939e69faa)" x="0" y="0" width="300px" height="300px" class="logo-background-square"></rect><!----><defs data-v-29081953=""><!----></defs><g data-v-29081953="" id="78ba86a7-2147-40d5-b02f-5c37e253b4f3" fill="#ffffff" stroke="none" transform="matrix(2.2750959396362305,0,0,2.2750959396362305,35.44980811957182,36.947283377095545)"><path d="M98.699 69.11l-1.867-1.352c-.031-.023-3.702-2.749-3.886-6.214-.222-4.14 1.296-7.032 1.296-7.032-2.543 2.154-3.782 4.554-3.68 7.128.112 2.853 1.884 5.213 3.259 6.619L54.004 81.91h-.007l-3.647-4.307-5.928 2.646 3.131 3.877-6.31 2.161a4.362 4.362 0 0 1-.635.056c-2.4 0-4.577-2.717-4.577-5.697 0-2.964 2.034-5.919 4.013-7.063l56.097-20.746L54.728 9 6.107 25.463C3.708 26.377 2 28.992 2 32.011c0 1.581.477 3.115 1.335 4.346l.445-.293-.429.309 2.074 3.258c-.334-6.325 4.601-7.962 7.048-9.042l2.384 2.98c-1.812.794-7.151 2.496-6.857 8.129l.016.182c0 1.176.35 2.313.978 3.21l-.008.007 16.527 25.339c-.326-3.202 3.154-7.755 8.367-8.859l2.272 2.845c-5.363 2.058-8.145 5.165-7.612 9.025l.016.176c0 1.177.342 2.32.978 3.21l-.034.024 5.833 9.018.04-.023c1.303 1.74 3.203 2.876 5.237 2.876.39 0 .787-.039 1.167-.119l7.358-2.519 3.464 4.291 1.589-3.513H58.2l-2.551-3.011 43.05-14.747zM35.618 41.117l-2.384-2.979 8.661-3.266-6.476-8.455 5.761-1.986 6.572 8.231 8.128-3.067 2.979 2.781-8.716 3.281 13.086 16.384-6.356 2.384L44.207 37.89l-8.589 3.227z"></path></g><!----></svg>